<mxfile host="app.diagrams.net" modified="2024-02-18T16:17:02.090Z" agent="Mozilla/5.0 (X11; Linux x86_64; rv:122.0) Gecko/20100101 Firefox/122.0" etag="GWf28buohnt9Wfw7aX2W" version="23.1.5" type="device">
  <diagram name="Page-1" id="ukfH7Aqjwt_QL-1ruhA5">
    <mxGraphModel dx="1434" dy="782" grid="1" gridSize="10" guides="1" tooltips="1" connect="1" arrows="1" fold="1" page="1" pageScale="1" pageWidth="850" pageHeight="1100" math="0" shadow="0">
      <root>
        <mxCell id="0" />
        <mxCell id="1" parent="0" />
        <mxCell id="_ipxNvvZkks40El0zRV0-2" value="" style="rounded=0;whiteSpace=wrap;html=1;" vertex="1" parent="1">
          <mxGeometry x="200" y="330" width="490" height="150" as="geometry" />
        </mxCell>
        <mxCell id="_ipxNvvZkks40El0zRV0-3" value="Phishing Detection Module" style="text;html=1;align=center;verticalAlign=middle;whiteSpace=wrap;rounded=0;" vertex="1" parent="1">
          <mxGeometry x="210" y="300" width="100" height="30" as="geometry" />
        </mxCell>
        <mxCell id="_ipxNvvZkks40El0zRV0-4" value="Metadata based Model" style="rounded=0;whiteSpace=wrap;html=1;fillColor=#f5f5f5;fontColor=#333333;strokeColor=#666666;" vertex="1" parent="1">
          <mxGeometry x="230" y="350" width="130" height="35" as="geometry" />
        </mxCell>
        <mxCell id="_ipxNvvZkks40El0zRV0-5" value="Corpus based Model" style="rounded=0;whiteSpace=wrap;html=1;fillColor=#f5f5f5;fontColor=#333333;strokeColor=#666666;" vertex="1" parent="1">
          <mxGeometry x="380" y="350" width="130" height="35" as="geometry" />
        </mxCell>
        <mxCell id="_ipxNvvZkks40El0zRV0-6" value="URL based Model" style="rounded=0;whiteSpace=wrap;html=1;fillColor=#f5f5f5;fontColor=#333333;strokeColor=#666666;" vertex="1" parent="1">
          <mxGeometry x="530" y="350" width="130" height="35" as="geometry" />
        </mxCell>
        <mxCell id="_ipxNvvZkks40El0zRV0-7" value="Trained Classifier Model" style="rounded=0;whiteSpace=wrap;html=1;fillColor=#f5f5f5;fontColor=#333333;strokeColor=#666666;" vertex="1" parent="1">
          <mxGeometry x="230" y="410" width="430" height="35" as="geometry" />
        </mxCell>
        <mxCell id="_ipxNvvZkks40El0zRV0-9" value="" style="endArrow=classic;html=1;rounded=0;exitX=0.5;exitY=1;exitDx=0;exitDy=0;" edge="1" parent="1" source="_ipxNvvZkks40El0zRV0-4" target="_ipxNvvZkks40El0zRV0-7">
          <mxGeometry width="50" height="50" relative="1" as="geometry">
            <mxPoint x="270" y="400" as="sourcePoint" />
            <mxPoint x="330" y="400" as="targetPoint" />
          </mxGeometry>
        </mxCell>
        <mxCell id="_ipxNvvZkks40El0zRV0-10" value="" style="endArrow=classic;html=1;rounded=0;exitX=0.5;exitY=1;exitDx=0;exitDy=0;entryX=0.5;entryY=0;entryDx=0;entryDy=0;" edge="1" parent="1" source="_ipxNvvZkks40El0zRV0-5" target="_ipxNvvZkks40El0zRV0-7">
          <mxGeometry width="50" height="50" relative="1" as="geometry">
            <mxPoint x="305" y="395" as="sourcePoint" />
            <mxPoint x="393" y="420" as="targetPoint" />
          </mxGeometry>
        </mxCell>
        <mxCell id="_ipxNvvZkks40El0zRV0-11" value="" style="endArrow=classic;html=1;rounded=0;exitX=0.562;exitY=1.057;exitDx=0;exitDy=0;exitPerimeter=0;" edge="1" parent="1" source="_ipxNvvZkks40El0zRV0-6" target="_ipxNvvZkks40El0zRV0-7">
          <mxGeometry width="50" height="50" relative="1" as="geometry">
            <mxPoint x="455" y="395" as="sourcePoint" />
            <mxPoint x="455" y="420" as="targetPoint" />
          </mxGeometry>
        </mxCell>
        <mxCell id="_ipxNvvZkks40El0zRV0-12" value="" style="endArrow=classic;html=1;rounded=0;entryX=0.5;entryY=0;entryDx=0;entryDy=0;" edge="1" parent="1">
          <mxGeometry width="50" height="50" relative="1" as="geometry">
            <mxPoint x="390" y="510" as="sourcePoint" />
            <mxPoint x="390" y="615" as="targetPoint" />
          </mxGeometry>
        </mxCell>
        <mxCell id="_ipxNvvZkks40El0zRV0-13" value="" style="endArrow=classic;html=1;rounded=0;entryX=0.5;entryY=0;entryDx=0;entryDy=0;" edge="1" parent="1" target="_ipxNvvZkks40El0zRV0-39">
          <mxGeometry width="50" height="50" relative="1" as="geometry">
            <mxPoint x="510" y="510" as="sourcePoint" />
            <mxPoint x="500" y="615" as="targetPoint" />
          </mxGeometry>
        </mxCell>
        <mxCell id="_ipxNvvZkks40El0zRV0-18" value="&lt;div&gt;User Notification&lt;/div&gt;&lt;div&gt;(Send Results)&lt;br&gt;&lt;/div&gt;" style="ellipse;whiteSpace=wrap;html=1;fillColor=#e1d5e7;strokeColor=#9673a6;" vertex="1" parent="1">
          <mxGeometry x="370" y="759.33" width="150" height="80" as="geometry" />
        </mxCell>
        <mxCell id="_ipxNvvZkks40El0zRV0-19" value="" style="endArrow=classic;html=1;rounded=0;exitX=0.5;exitY=1;exitDx=0;exitDy=0;" edge="1" parent="1" source="_ipxNvvZkks40El0zRV0-38" target="_ipxNvvZkks40El0zRV0-18">
          <mxGeometry width="50" height="50" relative="1" as="geometry">
            <mxPoint x="390" y="655" as="sourcePoint" />
            <mxPoint x="400" y="560" as="targetPoint" />
          </mxGeometry>
        </mxCell>
        <mxCell id="_ipxNvvZkks40El0zRV0-20" value="" style="endArrow=classic;html=1;rounded=0;exitX=0.5;exitY=1;exitDx=0;exitDy=0;entryX=0.65;entryY=0.027;entryDx=0;entryDy=0;entryPerimeter=0;" edge="1" parent="1" source="_ipxNvvZkks40El0zRV0-39" target="_ipxNvvZkks40El0zRV0-18">
          <mxGeometry width="50" height="50" relative="1" as="geometry">
            <mxPoint x="500" y="655" as="sourcePoint" />
            <mxPoint x="460" y="640" as="targetPoint" />
          </mxGeometry>
        </mxCell>
        <mxCell id="_ipxNvvZkks40El0zRV0-31" value="" style="edgeStyle=orthogonalEdgeStyle;rounded=0;orthogonalLoop=1;jettySize=auto;html=1;" edge="1" parent="1" source="_ipxNvvZkks40El0zRV0-21" target="_ipxNvvZkks40El0zRV0-33">
          <mxGeometry relative="1" as="geometry">
            <mxPoint x="185.08333333333326" y="760" as="targetPoint" />
          </mxGeometry>
        </mxCell>
        <mxCell id="_ipxNvvZkks40El0zRV0-21" value="" style="rounded=0;whiteSpace=wrap;html=1;" vertex="1" parent="1">
          <mxGeometry x="100" y="540" width="170" height="190" as="geometry" />
        </mxCell>
        <mxCell id="_ipxNvvZkks40El0zRV0-22" value="Sentiment Analysis Module" style="text;html=1;align=center;verticalAlign=middle;whiteSpace=wrap;rounded=0;" vertex="1" parent="1">
          <mxGeometry x="170" y="510" width="100" height="30" as="geometry" />
        </mxCell>
        <mxCell id="_ipxNvvZkks40El0zRV0-25" value="" style="endArrow=classic;html=1;rounded=0;exitX=0;exitY=0.5;exitDx=0;exitDy=0;entryX=1;entryY=0.5;entryDx=0;entryDy=0;" edge="1" parent="1" target="_ipxNvvZkks40El0zRV0-21">
          <mxGeometry width="50" height="50" relative="1" as="geometry">
            <mxPoint x="350" y="635" as="sourcePoint" />
            <mxPoint x="400" y="560" as="targetPoint" />
          </mxGeometry>
        </mxCell>
        <mxCell id="_ipxNvvZkks40El0zRV0-29" value="" style="edgeStyle=orthogonalEdgeStyle;rounded=0;orthogonalLoop=1;jettySize=auto;html=1;" edge="1" parent="1" source="_ipxNvvZkks40El0zRV0-26" target="_ipxNvvZkks40El0zRV0-28">
          <mxGeometry relative="1" as="geometry" />
        </mxCell>
        <mxCell id="_ipxNvvZkks40El0zRV0-26" value="Implementation" style="rounded=0;whiteSpace=wrap;html=1;fillColor=#f5f5f5;fontColor=#333333;strokeColor=#666666;" vertex="1" parent="1">
          <mxGeometry x="120" y="560" width="130" height="35" as="geometry" />
        </mxCell>
        <mxCell id="_ipxNvvZkks40El0zRV0-27" value="Training" style="rounded=0;whiteSpace=wrap;html=1;fillColor=#f5f5f5;fontColor=#333333;strokeColor=#666666;" vertex="1" parent="1">
          <mxGeometry x="120" y="615" width="130" height="35" as="geometry" />
        </mxCell>
        <mxCell id="_ipxNvvZkks40El0zRV0-28" value="Evaluation" style="rounded=0;whiteSpace=wrap;html=1;fillColor=#f5f5f5;fontColor=#333333;strokeColor=#666666;" vertex="1" parent="1">
          <mxGeometry x="120" y="670" width="130" height="35" as="geometry" />
        </mxCell>
        <mxCell id="_ipxNvvZkks40El0zRV0-33" value="Report to CSIRT team" style="ellipse;whiteSpace=wrap;html=1;fillColor=#e1d5e7;strokeColor=#9673a6;" vertex="1" parent="1">
          <mxGeometry x="120" y="770" width="130" height="69.33" as="geometry" />
        </mxCell>
        <mxCell id="_ipxNvvZkks40El0zRV0-36" style="edgeStyle=orthogonalEdgeStyle;rounded=0;orthogonalLoop=1;jettySize=auto;html=1;entryX=0.5;entryY=0;entryDx=0;entryDy=0;" edge="1" parent="1" source="_ipxNvvZkks40El0zRV0-34" target="_ipxNvvZkks40El0zRV0-37">
          <mxGeometry relative="1" as="geometry">
            <mxPoint x="445" y="160" as="targetPoint" />
          </mxGeometry>
        </mxCell>
        <mxCell id="_ipxNvvZkks40El0zRV0-34" value="&lt;div&gt;User Request&lt;/div&gt;&lt;div&gt;(.eml file)&lt;br&gt;&lt;/div&gt;" style="ellipse;whiteSpace=wrap;html=1;fillColor=#fff2cc;strokeColor=#d6b656;" vertex="1" parent="1">
          <mxGeometry x="370" y="40" width="150" height="80" as="geometry" />
        </mxCell>
        <mxCell id="_ipxNvvZkks40El0zRV0-42" value="" style="edgeStyle=orthogonalEdgeStyle;rounded=0;orthogonalLoop=1;jettySize=auto;html=1;" edge="1" parent="1" source="_ipxNvvZkks40El0zRV0-37" target="_ipxNvvZkks40El0zRV0-41">
          <mxGeometry relative="1" as="geometry" />
        </mxCell>
        <mxCell id="_ipxNvvZkks40El0zRV0-37" value="Data preparation &amp;amp; Pre-processing" style="rounded=1;whiteSpace=wrap;html=1;fillColor=#dae8fc;strokeColor=#6c8ebf;" vertex="1" parent="1">
          <mxGeometry x="385" y="150" width="120" height="60" as="geometry" />
        </mxCell>
        <mxCell id="_ipxNvvZkks40El0zRV0-38" value="Phishing" style="rounded=1;whiteSpace=wrap;html=1;fillColor=#f8cecc;strokeColor=#b85450;" vertex="1" parent="1">
          <mxGeometry x="345" y="615" width="80" height="45" as="geometry" />
        </mxCell>
        <mxCell id="_ipxNvvZkks40El0zRV0-39" value="Legitimate" style="rounded=1;whiteSpace=wrap;html=1;fillColor=#d5e8d4;strokeColor=#82b366;" vertex="1" parent="1">
          <mxGeometry x="470" y="615" width="80" height="45" as="geometry" />
        </mxCell>
        <mxCell id="_ipxNvvZkks40El0zRV0-43" style="edgeStyle=orthogonalEdgeStyle;rounded=0;orthogonalLoop=1;jettySize=auto;html=1;entryX=0.5;entryY=0;entryDx=0;entryDy=0;" edge="1" parent="1" source="_ipxNvvZkks40El0zRV0-41" target="_ipxNvvZkks40El0zRV0-2">
          <mxGeometry relative="1" as="geometry" />
        </mxCell>
        <mxCell id="_ipxNvvZkks40El0zRV0-44" style="edgeStyle=orthogonalEdgeStyle;rounded=0;orthogonalLoop=1;jettySize=auto;html=1;exitX=0;exitY=0.5;exitDx=0;exitDy=0;entryX=0.25;entryY=0;entryDx=0;entryDy=0;" edge="1" parent="1" source="_ipxNvvZkks40El0zRV0-37" target="_ipxNvvZkks40El0zRV0-21">
          <mxGeometry relative="1" as="geometry">
            <mxPoint x="130" y="180" as="targetPoint" />
            <mxPoint x="380" y="180" as="sourcePoint" />
            <Array as="points">
              <mxPoint x="143" y="180" />
            </Array>
          </mxGeometry>
        </mxCell>
        <mxCell id="_ipxNvvZkks40El0zRV0-41" value="&lt;div&gt;Feature Extraction&lt;/div&gt;" style="rounded=1;whiteSpace=wrap;html=1;fillColor=#dae8fc;strokeColor=#6c8ebf;" vertex="1" parent="1">
          <mxGeometry x="385" y="240" width="120" height="60" as="geometry" />
        </mxCell>
        <mxCell id="_ipxNvvZkks40El0zRV0-51" value="" style="endArrow=none;html=1;rounded=0;entryX=0.5;entryY=1;entryDx=0;entryDy=0;exitX=0.5;exitY=1;exitDx=0;exitDy=0;" edge="1" parent="1" source="_ipxNvvZkks40El0zRV0-2" target="_ipxNvvZkks40El0zRV0-7">
          <mxGeometry width="50" height="50" relative="1" as="geometry">
            <mxPoint x="260" y="550" as="sourcePoint" />
            <mxPoint x="310" y="500" as="targetPoint" />
          </mxGeometry>
        </mxCell>
        <mxCell id="_ipxNvvZkks40El0zRV0-52" value="" style="endArrow=none;html=1;rounded=0;entryX=0.5;entryY=1;entryDx=0;entryDy=0;" edge="1" parent="1" target="_ipxNvvZkks40El0zRV0-2">
          <mxGeometry width="50" height="50" relative="1" as="geometry">
            <mxPoint x="445" y="510" as="sourcePoint" />
            <mxPoint x="310" y="500" as="targetPoint" />
          </mxGeometry>
        </mxCell>
        <mxCell id="_ipxNvvZkks40El0zRV0-53" value="" style="endArrow=none;html=1;rounded=0;" edge="1" parent="1">
          <mxGeometry width="50" height="50" relative="1" as="geometry">
            <mxPoint x="390" y="510" as="sourcePoint" />
            <mxPoint x="445" y="510" as="targetPoint" />
          </mxGeometry>
        </mxCell>
        <mxCell id="_ipxNvvZkks40El0zRV0-54" value="" style="endArrow=none;html=1;rounded=0;" edge="1" parent="1">
          <mxGeometry width="50" height="50" relative="1" as="geometry">
            <mxPoint x="440" y="510" as="sourcePoint" />
            <mxPoint x="510" y="510" as="targetPoint" />
          </mxGeometry>
        </mxCell>
      </root>
    </mxGraphModel>
  </diagram>
</mxfile>
